<mxfile host="app.diagrams.net" modified="2023-09-19T04:48:16.556Z" agent="Mozilla/5.0 (Windows NT 10.0; Win64; x64) AppleWebKit/537.36 (KHTML, like Gecko) Chrome/116.0.0.0 Safari/537.36" etag="g1u4x5SSvWmCU4siG-_0" version="21.7.5" type="device">
  <diagram id="C5RBs43oDa-KdzZeNtuy" name="Page-1">
    <mxGraphModel dx="989" dy="523" grid="0" gridSize="10" guides="1" tooltips="1" connect="1" arrows="1" fold="1" page="1" pageScale="1" pageWidth="827" pageHeight="1169" math="0" shadow="0">
      <root>
        <mxCell id="WIyWlLk6GJQsqaUBKTNV-0" />
        <mxCell id="WIyWlLk6GJQsqaUBKTNV-1" parent="WIyWlLk6GJQsqaUBKTNV-0" />
        <mxCell id="p8BFKP465fhOb9F-RIUU-540" value="&lt;font style=&quot;font-size: 17px;&quot;&gt;gen_mas&lt;/font&gt;" style="rounded=1;whiteSpace=wrap;html=1;fontSize=14;glass=0;strokeWidth=1;shadow=0;" vertex="1" parent="WIyWlLk6GJQsqaUBKTNV-1">
          <mxGeometry x="252.5" y="959.6666666666667" width="120" height="40" as="geometry" />
        </mxCell>
        <mxCell id="p8BFKP465fhOb9F-RIUU-541" value="Конец" style="rounded=1;whiteSpace=wrap;html=1;fontSize=12;glass=0;strokeWidth=1;shadow=0;" vertex="1" parent="WIyWlLk6GJQsqaUBKTNV-1">
          <mxGeometry x="256" y="1398.9966666666667" width="120" height="40" as="geometry" />
        </mxCell>
        <mxCell id="p8BFKP465fhOb9F-RIUU-542" value="Вход. пар-ры: double* mas, int n&lt;br&gt;Возвр. знач.: mas" style="text;html=1;strokeColor=none;fillColor=none;align=left;verticalAlign=middle;whiteSpace=wrap;rounded=0;" vertex="1" parent="WIyWlLk6GJQsqaUBKTNV-1">
          <mxGeometry x="442.5" y="964.67" width="180.5" height="30" as="geometry" />
        </mxCell>
        <mxCell id="p8BFKP465fhOb9F-RIUU-543" value="" style="endArrow=none;html=1;rounded=0;entryX=1;entryY=0.5;entryDx=0;entryDy=0;exitX=0;exitY=0.5;exitDx=0;exitDy=0;" edge="1" parent="WIyWlLk6GJQsqaUBKTNV-1" source="p8BFKP465fhOb9F-RIUU-542" target="p8BFKP465fhOb9F-RIUU-540">
          <mxGeometry width="50" height="50" relative="1" as="geometry">
            <mxPoint x="352.5" y="1049.6666666666667" as="sourcePoint" />
            <mxPoint x="402.5" y="999.6666666666667" as="targetPoint" />
          </mxGeometry>
        </mxCell>
        <mxCell id="p8BFKP465fhOb9F-RIUU-544" value="" style="endArrow=none;html=1;rounded=0;" edge="1" parent="WIyWlLk6GJQsqaUBKTNV-1">
          <mxGeometry width="50" height="50" relative="1" as="geometry">
            <mxPoint x="442.5" y="959.6666666666667" as="sourcePoint" />
            <mxPoint x="442.5" y="979.6666666666667" as="targetPoint" />
          </mxGeometry>
        </mxCell>
        <mxCell id="p8BFKP465fhOb9F-RIUU-545" value="" style="endArrow=none;html=1;rounded=0;" edge="1" parent="WIyWlLk6GJQsqaUBKTNV-1">
          <mxGeometry width="50" height="50" relative="1" as="geometry">
            <mxPoint x="442.5" y="999.6666666666667" as="sourcePoint" />
            <mxPoint x="442.5" y="979.6666666666667" as="targetPoint" />
          </mxGeometry>
        </mxCell>
        <mxCell id="p8BFKP465fhOb9F-RIUU-546" value="" style="endArrow=none;html=1;rounded=0;" edge="1" parent="WIyWlLk6GJQsqaUBKTNV-1">
          <mxGeometry width="50" height="50" relative="1" as="geometry">
            <mxPoint x="442.5" y="999.6666666666667" as="sourcePoint" />
            <mxPoint x="482.5" y="999.6666666666667" as="targetPoint" />
          </mxGeometry>
        </mxCell>
        <mxCell id="p8BFKP465fhOb9F-RIUU-547" value="" style="endArrow=none;html=1;rounded=0;" edge="1" parent="WIyWlLk6GJQsqaUBKTNV-1">
          <mxGeometry width="50" height="50" relative="1" as="geometry">
            <mxPoint x="442.5" y="959.6666666666667" as="sourcePoint" />
            <mxPoint x="482.5" y="959.6666666666667" as="targetPoint" />
          </mxGeometry>
        </mxCell>
        <mxCell id="p8BFKP465fhOb9F-RIUU-549" value="" style="endArrow=none;html=1;rounded=0;exitX=0.5;exitY=1;exitDx=0;exitDy=0;entryX=0.5;entryY=0;entryDx=0;entryDy=0;" edge="1" parent="WIyWlLk6GJQsqaUBKTNV-1" source="p8BFKP465fhOb9F-RIUU-540">
          <mxGeometry width="50" height="50" relative="1" as="geometry">
            <mxPoint x="480.5" y="1274.6666666666667" as="sourcePoint" />
            <mxPoint x="312.5" y="1049.6666666666667" as="targetPoint" />
          </mxGeometry>
        </mxCell>
        <mxCell id="p8BFKP465fhOb9F-RIUU-550" value="&lt;font style=&quot;font-size: 16px;&quot;&gt;srand(time(0))&lt;/font&gt;" style="rounded=0;whiteSpace=wrap;html=1;" vertex="1" parent="WIyWlLk6GJQsqaUBKTNV-1">
          <mxGeometry x="252.5" y="1045.6666666666667" width="120" height="60" as="geometry" />
        </mxCell>
        <mxCell id="p8BFKP465fhOb9F-RIUU-551" value="&lt;font style=&quot;font-size: 21px;&quot;&gt;i = 0..n&lt;/font&gt;" style="shape=hexagon;perimeter=hexagonPerimeter2;whiteSpace=wrap;html=1;fixedSize=1;" vertex="1" parent="WIyWlLk6GJQsqaUBKTNV-1">
          <mxGeometry x="252.5" y="1133" width="120" height="80" as="geometry" />
        </mxCell>
        <mxCell id="p8BFKP465fhOb9F-RIUU-552" value="" style="endArrow=none;html=1;rounded=0;exitX=0.5;exitY=0;exitDx=0;exitDy=0;entryX=0.5;entryY=1;entryDx=0;entryDy=0;" edge="1" parent="WIyWlLk6GJQsqaUBKTNV-1" source="p8BFKP465fhOb9F-RIUU-551" target="p8BFKP465fhOb9F-RIUU-550">
          <mxGeometry width="50" height="50" relative="1" as="geometry">
            <mxPoint x="508" y="1132" as="sourcePoint" />
            <mxPoint x="558" y="1082" as="targetPoint" />
          </mxGeometry>
        </mxCell>
        <mxCell id="p8BFKP465fhOb9F-RIUU-553" value="mas[i] = ((double)((int)(rand() % 600) - 300)) / 10.0;" style="rounded=0;whiteSpace=wrap;html=1;" vertex="1" parent="WIyWlLk6GJQsqaUBKTNV-1">
          <mxGeometry x="252.5" y="1237" width="120" height="60" as="geometry" />
        </mxCell>
        <mxCell id="p8BFKP465fhOb9F-RIUU-554" value="" style="endArrow=none;html=1;rounded=0;exitX=0.5;exitY=1;exitDx=0;exitDy=0;entryX=0.5;entryY=0;entryDx=0;entryDy=0;" edge="1" parent="WIyWlLk6GJQsqaUBKTNV-1" source="p8BFKP465fhOb9F-RIUU-551" target="p8BFKP465fhOb9F-RIUU-553">
          <mxGeometry width="50" height="50" relative="1" as="geometry">
            <mxPoint x="508" y="1294" as="sourcePoint" />
            <mxPoint x="558" y="1244" as="targetPoint" />
          </mxGeometry>
        </mxCell>
        <mxCell id="p8BFKP465fhOb9F-RIUU-555" value="" style="endArrow=none;html=1;rounded=0;exitX=0.5;exitY=1;exitDx=0;exitDy=0;" edge="1" parent="WIyWlLk6GJQsqaUBKTNV-1" source="p8BFKP465fhOb9F-RIUU-553">
          <mxGeometry width="50" height="50" relative="1" as="geometry">
            <mxPoint x="508" y="1294" as="sourcePoint" />
            <mxPoint x="313" y="1326" as="targetPoint" />
          </mxGeometry>
        </mxCell>
        <mxCell id="p8BFKP465fhOb9F-RIUU-556" value="" style="endArrow=none;html=1;rounded=0;" edge="1" parent="WIyWlLk6GJQsqaUBKTNV-1">
          <mxGeometry width="50" height="50" relative="1" as="geometry">
            <mxPoint x="313" y="1326" as="sourcePoint" />
            <mxPoint x="211" y="1326" as="targetPoint" />
          </mxGeometry>
        </mxCell>
        <mxCell id="p8BFKP465fhOb9F-RIUU-557" value="" style="endArrow=none;html=1;rounded=0;" edge="1" parent="WIyWlLk6GJQsqaUBKTNV-1">
          <mxGeometry width="50" height="50" relative="1" as="geometry">
            <mxPoint x="211" y="1326" as="sourcePoint" />
            <mxPoint x="210" y="1174" as="targetPoint" />
          </mxGeometry>
        </mxCell>
        <mxCell id="p8BFKP465fhOb9F-RIUU-558" value="" style="endArrow=classic;html=1;rounded=0;entryX=0;entryY=0.5;entryDx=0;entryDy=0;" edge="1" parent="WIyWlLk6GJQsqaUBKTNV-1" target="p8BFKP465fhOb9F-RIUU-551">
          <mxGeometry width="50" height="50" relative="1" as="geometry">
            <mxPoint x="210" y="1173" as="sourcePoint" />
            <mxPoint x="265" y="1164" as="targetPoint" />
          </mxGeometry>
        </mxCell>
        <mxCell id="p8BFKP465fhOb9F-RIUU-560" value="" style="endArrow=none;html=1;rounded=0;exitX=1;exitY=0.5;exitDx=0;exitDy=0;" edge="1" parent="WIyWlLk6GJQsqaUBKTNV-1" source="p8BFKP465fhOb9F-RIUU-551">
          <mxGeometry width="50" height="50" relative="1" as="geometry">
            <mxPoint x="360" y="1262" as="sourcePoint" />
            <mxPoint x="409" y="1173" as="targetPoint" />
          </mxGeometry>
        </mxCell>
        <mxCell id="p8BFKP465fhOb9F-RIUU-562" value="" style="endArrow=classic;html=1;rounded=0;entryX=0.5;entryY=0;entryDx=0;entryDy=0;" edge="1" parent="WIyWlLk6GJQsqaUBKTNV-1" target="p8BFKP465fhOb9F-RIUU-541">
          <mxGeometry width="50" height="50" relative="1" as="geometry">
            <mxPoint x="316" y="1352" as="sourcePoint" />
            <mxPoint x="394" y="1242" as="targetPoint" />
          </mxGeometry>
        </mxCell>
        <mxCell id="p8BFKP465fhOb9F-RIUU-563" value="" style="endArrow=none;html=1;rounded=0;" edge="1" parent="WIyWlLk6GJQsqaUBKTNV-1">
          <mxGeometry width="50" height="50" relative="1" as="geometry">
            <mxPoint x="316" y="1352" as="sourcePoint" />
            <mxPoint x="410" y="1352" as="targetPoint" />
          </mxGeometry>
        </mxCell>
        <mxCell id="p8BFKP465fhOb9F-RIUU-564" value="" style="endArrow=none;html=1;rounded=0;" edge="1" parent="WIyWlLk6GJQsqaUBKTNV-1">
          <mxGeometry width="50" height="50" relative="1" as="geometry">
            <mxPoint x="410" y="1352" as="sourcePoint" />
            <mxPoint x="408" y="1173" as="targetPoint" />
          </mxGeometry>
        </mxCell>
      </root>
    </mxGraphModel>
  </diagram>
</mxfile>
